<?xml version="1.0" standalone="no"?>
<!DOCTYPE svg PUBLIC "-//W3C//DTD SVG 20010904//EN"
 "http://www.w3.org/TR/2001/REC-SVG-20010904/DTD/svg10.dtd">
<svg version="1.0" xmlns="http://www.w3.org/2000/svg"
 width="337.000000pt" height="303.000000pt" viewBox="0 0 337.000000 303.000000"
 preserveAspectRatio="xMidYMid meet">
<metadata>
Created by potrace 1.16, written by Peter Selinger 2001-2019
</metadata>
<g transform="translate(0.000000,303.000000) scale(0.100000,-0.100000)"
fill="#ffffff" stroke="none">
<path d="M1229 2973 c-13 -16 -12 -17 4 -4 14 11 20 11 35 0 15 -13 16 -12 3
4 -7 9 -17 17 -21 17 -4 0 -14 -8 -21 -17z M1183 2933 c-8 -21 -22 -51 -30
-68 -9 -16 -11 -25 -5 -20 13 12 64 125 56 125 -3 0 -12 -17 -21 -37z M1323
2953 c15 -2 27 -6 27 -7 0 -2 -7 -23 -15 -46 -8 -24 -13 -45 -11 -47 4 -4 36
84 36 99 0 4 -15 7 -32 7 -31 -2 -31 -2 -5 -6z M1388 2833 c6 -2 18 -2 25 0 6
3 1 5 -13 5 -14 0 -19 -2 -12 -5z M1273 2753 c-8 -21 -22 -51 -30 -68 -9 -16
-11 -25 -5 -20 13 12 64 125 56 125 -3 0 -12 -17 -21 -37z M1403 2753 c-8 -21
-22 -51 -30 -68 -9 -16 -11 -25 -5 -20 13 12 64 125 56 125 -3 0 -12 -17 -21
-37z M1096 2763 c-6 -14 -5 -15 5 -6 7 7 10 15 7 18 -3 3 -9 -2 -12 -12z M20
2675 c0 -3 2 -5 5 -5 3 0 5 2 5 5 0 3 -2 5 -5 5 -3 0 -5 -2 -5 -5z M1066 2663
c-6 -14 -5 -15 5 -6 7 7 10 15 7 18 -3 3 -9 -2 -12 -12z M1053 2550 c0 -47 2
-66 4 -42 2 23 2 61 0 85 -2 23 -4 4 -4 -43z M1450 2555 c-41 -41 -72 -75 -69
-75 2 0 38 34 79 75 41 41 72 75 69 75 -2 0 -38 -34 -79 -75z M1343 2573 c-8
-21 -22 -51 -30 -68 -9 -16 -11 -25 -5 -20 13 12 64 125 56 125 -3 0 -12 -17
-21 -37z M1556 2573 l-17 -28 20 23 20 23 21 -40 c28 -56 35 -52 8 4 -26 53
-30 54 -52 18z M1053 2370 c0 -47 2 -66 4 -42 2 23 2 61 0 85 -2 23 -4 4 -4
-43z M1550 2375 c-41 -41 -72 -75 -69 -75 2 0 38 34 79 75 41 41 72 75 69 75
-2 0 -38 -34 -79 -75z M1283 2393 c-8 -21 -22 -51 -30 -68 -9 -16 -11 -25 -5
-20 13 12 64 125 56 125 -3 0 -12 -17 -21 -37z M1063 2190 c0 -47 2 -66 4 -42
2 23 2 61 0 85 -2 23 -4 4 -4 -43z M1370 2195 c-41 -41 -72 -75 -69 -75 2 0
38 34 79 75 41 41 72 75 69 75 -2 0 -38 -34 -79 -75z M817 2253 c18 -2 50 -2
70 0 21 2 7 4 -32 4 -38 0 -55 -2 -38 -4z M828 2193 c18 -2 45 -2 60 0 15 2 0
4 -33 4 -33 0 -45 -2 -27 -4z M818 2133 c23 -2 59 -2 80 0 20 2 1 4 -43 4 -44
0 -61 -2 -37 -4z M1259 2053 c-5 -52 0 -113 10 -113 5 0 5 17 2 38 -4 20 -4
54 -1 75 4 20 4 37 -1 37 -4 0 -8 -17 -10 -37z M1540 2065 c46 -18 64 -17 25
0 -16 8 -37 14 -45 14 -8 0 1 -7 20 -14z M1812 2037 c-15 -16 -32 -23 -52 -22
-28 2 -30 0 -29 -34 2 -30 3 -32 6 -8 2 15 10 28 16 29 7 0 17 2 24 2 6 1 23
12 38 26 l25 24 48 -45 47 -44 -45 48 c-51 55 -50 54 -78 24z M997 2033 c54
-3 62 -7 66 -26 4 -18 5 -17 6 6 l1 27 -67 -2 -68 -2 62 -3z M1510 2038 c3 -3
21 -10 40 -17 19 -6 30 -7 25 -2 -6 5 -23 13 -40 17 -16 4 -28 5 -25 2z M863
2013 c9 -2 25 -2 35 0 9 3 1 5 -18 5 -19 0 -27 -2 -17 -5z M788 2003 c12 -2
30 -2 40 0 9 3 -1 5 -23 4 -22 0 -30 -2 -17 -4z M1510 1983 c8 -3 30 -12 48
-19 17 -7 32 -11 32 -8 0 7 -67 34 -82 33 -8 0 -8 -3 2 -6z M2068 1933 c45 -2
119 -2 165 0 45 1 8 3 -83 3 -91 0 -128 -2 -82 -3z M2478 1933 c6 -2 18 -2 25
0 6 3 1 5 -13 5 -14 0 -19 -2 -12 -5z M2528 1933 c6 -2 18 -2 25 0 6 3 1 5
-13 5 -14 0 -19 -2 -12 -5z M120 1907 c0 -1 35 -36 78 -77 l77 -75 -75 78
c-69 71 -80 82 -80 74z M510 1835 c-41 -41 -72 -75 -69 -75 2 0 38 34 79 75
41 41 72 75 69 75 -2 0 -38 -34 -79 -75z M1630 1835 c-41 -41 -72 -75 -69 -75
2 0 38 34 79 75 41 41 72 75 69 75 -2 0 -38 -34 -79 -75z M797 1893 c18 -2 50
-2 70 0 21 2 7 4 -32 4 -38 0 -55 -2 -38 -4z M1490 1885 c46 -18 64 -17 25 0
-16 8 -37 14 -45 14 -8 0 1 -7 20 -14z M1260 1831 c0 -54 -2 -60 -22 -64 -20
-4 -19 -4 5 -6 27 -1 27 -1 27 64 0 36 -2 65 -5 65 -3 0 -5 -27 -5 -59z M1092
1828 l-2 -58 38 2 c36 1 36 1 5 5 -31 4 -32 6 -36 56 l-3 52 -2 -57z M2359
1855 c10 -17 21 -44 24 -60 l4 -30 2 28 c0 16 10 43 22 60 l21 32 -24 -28 -24
-27 -23 27 -22 28 20 -30z M2601 1844 c13 -17 26 -30 28 -27 3 2 -8 16 -24 31
l-28 27 24 -31z M1460 1858 c3 -3 21 -10 40 -17 19 -6 30 -7 25 -2 -6 5 -23
13 -40 17 -16 4 -28 5 -25 2z M808 1833 c18 -2 45 -2 60 0 15 2 0 4 -33 4 -33
0 -45 -2 -27 -4z M1730 1835 c0 -3 2 -5 5 -5 3 0 5 2 5 5 0 3 -2 5 -5 5 -3 0
-5 -2 -5 -5z M1810 1835 c0 -3 2 -5 5 -5 3 0 5 2 5 5 0 3 -2 5 -5 5 -3 0 -5
-2 -5 -5z M1950 1835 c0 -3 2 -5 5 -5 3 0 5 2 5 5 0 3 -2 5 -5 5 -3 0 -5 -2
-5 -5z M2030 1835 c0 -3 2 -5 5 -5 3 0 5 2 5 5 0 3 -2 5 -5 5 -3 0 -5 -2 -5
-5z M2110 1835 c0 -3 2 -5 5 -5 3 0 5 2 5 5 0 3 -2 5 -5 5 -3 0 -5 -2 -5 -5z
M2190 1835 c0 -3 2 -5 5 -5 3 0 5 2 5 5 0 3 -2 5 -5 5 -3 0 -5 -2 -5 -5z
M2270 1835 c0 -3 2 -5 5 -5 3 0 5 2 5 5 0 3 -2 5 -5 5 -3 0 -5 -2 -5 -5z
M2450 1835 c0 -3 2 -5 5 -5 3 0 5 2 5 5 0 3 -2 5 -5 5 -3 0 -5 -2 -5 -5z
M2530 1835 c0 -3 2 -5 5 -5 3 0 5 2 5 5 0 3 -2 5 -5 5 -3 0 -5 -2 -5 -5z
M1460 1803 c8 -3 30 -12 48 -19 17 -7 32 -11 32 -8 0 7 -67 34 -82 33 -8 0 -8
-3 2 -6z M798 1773 c23 -2 59 -2 80 0 20 2 1 4 -43 4 -44 0 -61 -2 -37 -4z
M1730 1775 c0 -3 2 -5 5 -5 3 0 5 2 5 5 0 3 -2 5 -5 5 -3 0 -5 -2 -5 -5z
M1810 1775 c0 -3 2 -5 5 -5 3 0 5 2 5 5 0 3 -2 5 -5 5 -3 0 -5 -2 -5 -5z
M1950 1775 c0 -3 2 -5 5 -5 3 0 5 2 5 5 0 3 -2 5 -5 5 -3 0 -5 -2 -5 -5z
M2030 1775 c0 -3 2 -5 5 -5 3 0 5 2 5 5 0 3 -2 5 -5 5 -3 0 -5 -2 -5 -5z
M2110 1775 c0 -3 2 -5 5 -5 3 0 5 2 5 5 0 3 -2 5 -5 5 -3 0 -5 -2 -5 -5z
M2190 1775 c0 -3 2 -5 5 -5 3 0 5 2 5 5 0 3 -2 5 -5 5 -3 0 -5 -2 -5 -5z
M2270 1775 c0 -3 2 -5 5 -5 3 0 5 2 5 5 0 3 -2 5 -5 5 -3 0 -5 -2 -5 -5z
M2450 1775 c0 -3 2 -5 5 -5 3 0 5 2 5 5 0 3 -2 5 -5 5 -3 0 -5 -2 -5 -5z
M2530 1775 c0 -3 2 -5 5 -5 3 0 5 2 5 5 0 3 -2 5 -5 5 -3 0 -5 -2 -5 -5z M660
1655 c-41 -41 -72 -75 -69 -75 2 0 38 34 79 75 41 41 72 75 69 75 -2 0 -38
-34 -79 -75z M1093 1650 c0 -47 2 -66 4 -42 2 23 2 61 0 85 -2 23 -4 4 -4 -43z
M1243 1650 c0 -47 2 -66 4 -42 2 23 2 61 0 85 -2 23 -4 4 -4 -43z M1450 1655
c-41 -41 -72 -75 -69 -75 2 0 38 34 79 75 41 41 72 75 69 75 -2 0 -38 -34 -79
-75z M1750 1655 c-41 -41 -72 -75 -69 -75 2 0 38 34 79 75 41 41 72 75 69 75
-2 0 -38 -34 -79 -75z M348 1679 c12 -14 22 -29 22 -34 0 -5 -10 -20 -22 -34
l-23 -26 28 24 27 24 28 -24 27 -24 -22 26 c-13 14 -23 29 -23 34 0 5 10 20
23 34 l22 26 -27 -24 -28 -24 -27 24 -28 24 23 -26z M1903 1645 c0 -33 2 -45
4 -27 2 18 2 45 0 60 -2 15 -4 0 -4 -33z M2073 1645 c0 -33 2 -45 4 -27 2 18
2 45 0 60 -2 15 -4 0 -4 -33z M2141 1664 c13 -17 26 -30 28 -27 3 2 -8 16 -24
31 l-28 27 24 -31z M2451 1664 c13 -17 26 -30 28 -27 3 2 -8 16 -24 31 l-28
27 24 -31z M2761 1664 c13 -17 26 -30 28 -27 3 2 -8 16 -24 31 l-28 27 24 -31z
M1550 1655 c0 -3 2 -5 5 -5 3 0 5 2 5 5 0 3 -2 5 -5 5 -3 0 -5 -2 -5 -5z
M1630 1655 c0 -3 2 -5 5 -5 3 0 5 2 5 5 0 3 -2 5 -5 5 -3 0 -5 -2 -5 -5z
M1930 1655 c0 -3 2 -5 5 -5 3 0 5 2 5 5 0 3 -2 5 -5 5 -3 0 -5 -2 -5 -5z
M2010 1655 c0 -3 2 -5 5 -5 3 0 5 2 5 5 0 3 -2 5 -5 5 -3 0 -5 -2 -5 -5z
M2220 1655 c0 -3 2 -5 5 -5 3 0 5 2 5 5 0 3 -2 5 -5 5 -3 0 -5 -2 -5 -5z
M2300 1655 c0 -3 2 -5 5 -5 3 0 5 2 5 5 0 3 -2 5 -5 5 -3 0 -5 -2 -5 -5z
M2380 1655 c0 -3 2 -5 5 -5 3 0 5 2 5 5 0 3 -2 5 -5 5 -3 0 -5 -2 -5 -5z
M2530 1655 c0 -3 2 -5 5 -5 3 0 5 2 5 5 0 3 -2 5 -5 5 -3 0 -5 -2 -5 -5z
M2610 1655 c0 -3 2 -5 5 -5 3 0 5 2 5 5 0 3 -2 5 -5 5 -3 0 -5 -2 -5 -5z
M2690 1655 c0 -3 2 -5 5 -5 3 0 5 2 5 5 0 3 -2 5 -5 5 -3 0 -5 -2 -5 -5z
M1030 1595 c0 -3 2 -5 5 -5 3 0 5 2 5 5 0 3 -2 5 -5 5 -3 0 -5 -2 -5 -5z
M1060 1595 c0 -3 2 -5 5 -5 3 0 5 2 5 5 0 3 -2 5 -5 5 -3 0 -5 -2 -5 -5z
M1550 1595 c0 -3 2 -5 5 -5 3 0 5 2 5 5 0 3 -2 5 -5 5 -3 0 -5 -2 -5 -5z
M1630 1595 c0 -3 2 -5 5 -5 3 0 5 2 5 5 0 3 -2 5 -5 5 -3 0 -5 -2 -5 -5z
M1660 1595 c0 -3 2 -5 5 -5 3 0 5 2 5 5 0 3 -2 5 -5 5 -3 0 -5 -2 -5 -5z
M1930 1595 c0 -3 2 -5 5 -5 3 0 5 2 5 5 0 3 -2 5 -5 5 -3 0 -5 -2 -5 -5z
M2010 1595 c0 -3 2 -5 5 -5 3 0 5 2 5 5 0 3 -2 5 -5 5 -3 0 -5 -2 -5 -5z
M2040 1595 c0 -3 2 -5 5 -5 3 0 5 2 5 5 0 3 -2 5 -5 5 -3 0 -5 -2 -5 -5z
M2220 1595 c0 -3 2 -5 5 -5 3 0 5 2 5 5 0 3 -2 5 -5 5 -3 0 -5 -2 -5 -5z
M2300 1595 c0 -3 2 -5 5 -5 3 0 5 2 5 5 0 3 -2 5 -5 5 -3 0 -5 -2 -5 -5z
M2380 1595 c0 -3 2 -5 5 -5 3 0 5 2 5 5 0 3 -2 5 -5 5 -3 0 -5 -2 -5 -5z
M2530 1595 c0 -3 2 -5 5 -5 3 0 5 2 5 5 0 3 -2 5 -5 5 -3 0 -5 -2 -5 -5z
M2610 1595 c0 -3 2 -5 5 -5 3 0 5 2 5 5 0 3 -2 5 -5 5 -3 0 -5 -2 -5 -5z
M2690 1595 c0 -3 2 -5 5 -5 3 0 5 2 5 5 0 3 -2 5 -5 5 -3 0 -5 -2 -5 -5z
M1083 1470 c0 -47 2 -66 4 -42 2 23 2 61 0 85 -2 23 -4 4 -4 -43z M1233 1470
c0 -47 2 -66 4 -42 2 23 2 61 0 85 -2 23 -4 4 -4 -43z M2200 1546 c0 -2 7 -7
16 -10 8 -3 12 -2 9 4 -6 10 -25 14 -25 6z M273 1493 c-8 -21 -22 -51 -30 -68
-9 -16 -11 -25 -5 -20 13 12 64 125 56 125 -3 0 -12 -17 -21 -37z M513 1493
c-8 -21 -22 -51 -30 -68 -9 -16 -11 -25 -5 -20 13 12 64 125 56 125 -3 0 -12
-17 -21 -37z M1353 1493 c-8 -21 -22 -51 -30 -68 -9 -16 -11 -25 -5 -20 13 12
64 125 56 125 -3 0 -12 -17 -21 -37z M1433 1493 c-8 -21 -22 -51 -30 -68 -9
-16 -11 -25 -5 -20 13 12 64 125 56 125 -3 0 -12 -17 -21 -37z M1623 1493 c-8
-21 -22 -51 -30 -68 -9 -16 -11 -25 -5 -20 13 12 64 125 56 125 -3 0 -12 -17
-21 -37z M1738 1490 c-9 -23 -30 -48 -50 -60 -18 -11 -28 -20 -21 -20 30 0
109 98 92 115 -2 2 -11 -14 -21 -35z M1943 1465 c0 -33 2 -45 4 -27 2 18 2 45
0 60 -2 15 -4 0 -4 -33z M2646 1503 c-6 -14 -5 -15 5 -6 7 7 10 15 7 18 -3 3
-9 -2 -12 -12z M2896 1503 c-6 -14 -5 -15 5 -6 7 7 10 15 7 18 -3 3 -9 -2 -12
-12z M2311 1484 c13 -17 26 -30 28 -27 3 2 -8 16 -24 31 l-28 27 24 -31z
M2431 1484 c13 -17 26 -30 28 -27 3 2 -8 16 -24 31 l-28 27 24 -31z M1480
1475 c0 -3 2 -5 5 -5 3 0 5 2 5 5 0 3 -2 5 -5 5 -3 0 -5 -2 -5 -5z M1560 1475
c0 -3 2 -5 5 -5 3 0 5 2 5 5 0 3 -2 5 -5 5 -3 0 -5 -2 -5 -5z M1970 1475 c0
-3 2 -5 5 -5 3 0 5 2 5 5 0 3 -2 5 -5 5 -3 0 -5 -2 -5 -5z M2050 1475 c0 -3 2
-5 5 -5 3 0 5 2 5 5 0 3 -2 5 -5 5 -3 0 -5 -2 -5 -5z M2510 1475 c0 -3 2 -5 5
-5 3 0 5 2 5 5 0 3 -2 5 -5 5 -3 0 -5 -2 -5 -5z M2590 1475 c0 -3 2 -5 5 -5 3
0 5 2 5 5 0 3 -2 5 -5 5 -3 0 -5 -2 -5 -5z M2620 1475 c0 -3 2 -5 5 -5 3 0 5
2 5 5 0 3 -2 5 -5 5 -3 0 -5 -2 -5 -5z M2710 1475 c0 -3 2 -5 5 -5 3 0 5 2 5
5 0 3 -2 5 -5 5 -3 0 -5 -2 -5 -5z M2790 1475 c0 -3 2 -5 5 -5 3 0 5 2 5 5 0
3 -2 5 -5 5 -3 0 -5 -2 -5 -5z M2870 1475 c0 -3 2 -5 5 -5 3 0 5 2 5 5 0 3 -2
5 -5 5 -3 0 -5 -2 -5 -5z M610 1415 c0 -3 2 -5 5 -5 3 0 5 2 5 5 0 3 -2 5 -5
5 -3 0 -5 -2 -5 -5z M1480 1415 c0 -3 2 -5 5 -5 3 0 5 2 5 5 0 3 -2 5 -5 5 -3
0 -5 -2 -5 -5z M1560 1415 c0 -3 2 -5 5 -5 3 0 5 2 5 5 0 3 -2 5 -5 5 -3 0 -5
-2 -5 -5z M1970 1415 c0 -3 2 -5 5 -5 3 0 5 2 5 5 0 3 -2 5 -5 5 -3 0 -5 -2
-5 -5z M2050 1415 c0 -3 2 -5 5 -5 3 0 5 2 5 5 0 3 -2 5 -5 5 -3 0 -5 -2 -5
-5z M2510 1415 c0 -3 2 -5 5 -5 3 0 5 2 5 5 0 3 -2 5 -5 5 -3 0 -5 -2 -5 -5z
M2590 1415 c0 -3 2 -5 5 -5 3 0 5 2 5 5 0 3 -2 5 -5 5 -3 0 -5 -2 -5 -5z
M2620 1415 c0 -3 2 -5 5 -5 3 0 5 2 5 5 0 3 -2 5 -5 5 -3 0 -5 -2 -5 -5z
M2676 1403 c-6 -14 -5 -15 5 -6 7 7 10 15 7 18 -3 3 -9 -2 -12 -12z M2710
1415 c0 -3 2 -5 5 -5 3 0 5 2 5 5 0 3 -2 5 -5 5 -3 0 -5 -2 -5 -5z M2790 1415
c0 -3 2 -5 5 -5 3 0 5 2 5 5 0 3 -2 5 -5 5 -3 0 -5 -2 -5 -5z M2870 1415 c0
-3 2 -5 5 -5 3 0 5 2 5 5 0 3 -2 5 -5 5 -3 0 -5 -2 -5 -5z M2930 1415 c0 -3 2
-5 5 -5 3 0 5 2 5 5 0 3 -2 5 -5 5 -3 0 -5 -2 -5 -5z M2956 1403 c-6 -14 -5
-15 5 -6 7 7 10 15 7 18 -3 3 -9 -2 -12 -12z M216 1355 c-9 -26 -7 -32 5 -12
6 10 9 21 6 23 -2 3 -7 -2 -11 -11z M440 1367 c0 -1 35 -36 78 -77 l77 -75
-75 78 c-69 71 -80 82 -80 74z M600 1367 c0 -1 35 -36 78 -77 l77 -75 -75 78
c-69 71 -80 82 -80 74z M1073 1290 c0 -47 2 -66 4 -42 2 23 2 61 0 85 -2 23
-4 4 -4 -43z M1223 1290 c0 -47 2 -66 4 -42 2 23 2 61 0 85 -2 23 -4 4 -4 -43z
M1675 1345 c-14 -13 -25 -33 -25 -45 0 -27 43 -70 70 -70 12 0 32 11 45 25 14
13 25 34 25 45 0 27 -43 70 -70 70 -11 0 -32 -11 -45 -25z m85 -5 c11 -11 20
-29 20 -40 0 -11 -9 -29 -20 -40 -11 -11 -29 -20 -40 -20 -11 0 -29 9 -40 20
-11 11 -20 29 -20 40 0 11 9 29 20 40 11 11 29 20 40 20 11 0 29 -9 40 -20z
M2185 1345 c-14 -13 -25 -33 -25 -45 0 -27 43 -70 70 -70 12 0 32 11 45 25 14
13 25 34 25 45 0 27 -43 70 -70 70 -11 0 -32 -11 -45 -25z m85 -5 c11 -11 20
-29 20 -40 0 -11 -9 -29 -20 -40 -11 -11 -29 -20 -40 -20 -11 0 -29 9 -40 20
-11 11 -20 29 -20 40 0 11 9 29 20 40 11 11 29 20 40 20 11 0 29 -9 40 -20z
M1293 1313 c-8 -21 -22 -51 -30 -68 -9 -16 -11 -25 -5 -20 13 12 64 125 56
125 -3 0 -12 -17 -21 -37z M1563 1313 c-8 -21 -22 -51 -30 -68 -9 -16 -11 -25
-5 -20 13 12 64 125 56 125 -3 0 -12 -17 -21 -37z M1393 1285 c0 -33 2 -45 4
-27 2 18 2 45 0 60 -2 15 -4 0 -4 -33z M2093 1285 c0 -33 2 -45 4 -27 2 18 2
45 0 60 -2 15 -4 0 -4 -33z M2383 1285 c0 -33 2 -45 4 -27 2 18 2 45 0 60 -2
15 -4 0 -4 -33z M2659 1290 c9 -27 17 -44 19 -39 4 11 -17 77 -27 83 -4 3 0
-17 8 -44z M2966 1323 c-6 -14 -5 -15 5 -6 7 7 10 15 7 18 -3 3 -9 -2 -12 -12z
M2608 1305 c-4 -16 -9 -39 -12 -50 -4 -11 1 -5 9 14 9 18 14 41 13 50 -2 9 -7
3 -10 -14z M1995 1300 c10 -11 20 -20 23 -20 3 0 -3 9 -13 20 -10 11 -20 20
-23 20 -3 0 3 -9 13 -20z M1420 1295 c0 -3 2 -5 5 -5 3 0 5 2 5 5 0 3 -2 5 -5
5 -3 0 -5 -2 -5 -5z M1500 1295 c0 -3 2 -5 5 -5 3 0 5 2 5 5 0 3 -2 5 -5 5 -3
0 -5 -2 -5 -5z M2410 1295 c0 -3 2 -5 5 -5 3 0 5 2 5 5 0 3 -2 5 -5 5 -3 0 -5
-2 -5 -5z M2490 1295 c0 -3 2 -5 5 -5 3 0 5 2 5 5 0 3 -2 5 -5 5 -3 0 -5 -2
-5 -5z M2570 1295 c0 -3 2 -5 5 -5 3 0 5 2 5 5 0 3 -2 5 -5 5 -3 0 -5 -2 -5
-5z M2700 1295 c0 -3 2 -5 5 -5 3 0 5 2 5 5 0 3 -2 5 -5 5 -3 0 -5 -2 -5 -5z
M2780 1295 c0 -3 2 -5 5 -5 3 0 5 2 5 5 0 3 -2 5 -5 5 -3 0 -5 -2 -5 -5z
M2860 1295 c0 -3 2 -5 5 -5 3 0 5 2 5 5 0 3 -2 5 -5 5 -3 0 -5 -2 -5 -5z
M2940 1295 c0 -3 2 -5 5 -5 3 0 5 2 5 5 0 3 -2 5 -5 5 -3 0 -5 -2 -5 -5z M176
1223 c-6 -14 -5 -15 5 -6 7 7 10 15 7 18 -3 3 -9 -2 -12 -12z M416 1223 c-6
-14 -5 -15 5 -6 7 7 10 15 7 18 -3 3 -9 -2 -12 -12z M1040 1235 c0 -3 2 -5 5
-5 3 0 5 2 5 5 0 3 -2 5 -5 5 -3 0 -5 -2 -5 -5z M1420 1235 c0 -3 2 -5 5 -5 3
0 5 2 5 5 0 3 -2 5 -5 5 -3 0 -5 -2 -5 -5z M1500 1235 c0 -3 2 -5 5 -5 3 0 5
2 5 5 0 3 -2 5 -5 5 -3 0 -5 -2 -5 -5z M2410 1235 c0 -3 2 -5 5 -5 3 0 5 2 5
5 0 3 -2 5 -5 5 -3 0 -5 -2 -5 -5z M2490 1235 c0 -3 2 -5 5 -5 3 0 5 2 5 5 0
3 -2 5 -5 5 -3 0 -5 -2 -5 -5z M2570 1235 c0 -3 2 -5 5 -5 3 0 5 2 5 5 0 3 -2
5 -5 5 -3 0 -5 -2 -5 -5z M2700 1235 c0 -3 2 -5 5 -5 3 0 5 2 5 5 0 3 -2 5 -5
5 -3 0 -5 -2 -5 -5z M2780 1235 c0 -3 2 -5 5 -5 3 0 5 2 5 5 0 3 -2 5 -5 5 -3
0 -5 -2 -5 -5z M2860 1235 c0 -3 2 -5 5 -5 3 0 5 2 5 5 0 3 -2 5 -5 5 -3 0 -5
-2 -5 -5z M2940 1235 c0 -3 2 -5 5 -5 3 0 5 2 5 5 0 3 -2 5 -5 5 -3 0 -5 -2
-5 -5z M2996 1223 c-6 -14 -5 -15 5 -6 7 7 10 15 7 18 -3 3 -9 -2 -12 -12z
M129 1153 c-5 -52 0 -113 10 -113 5 0 5 17 2 38 -4 20 -4 54 -1 75 4 20 4 37
-1 37 -4 0 -8 -17 -10 -37z M590 1187 c0 -1 35 -36 78 -77 l77 -75 -75 78
c-69 71 -80 82 -80 74z M750 1187 c0 -1 35 -36 78 -77 l77 -75 -75 78 c-69 71
-80 82 -80 74z M1565 1165 c-14 -13 -25 -33 -25 -45 0 -28 44 -70 73 -70 14 0
35 9 48 20 l24 20 -31 -16 c-56 -31 -114 5 -100 62 8 30 45 49 80 40 29 -7 43
-41 26 -61 -18 -22 -31 -18 -25 8 7 27 -26 35 -45 11 -22 -25 -4 -45 36 -41
55 7 70 41 34 77 -27 27 -66 25 -95 -5z m58 -31 c9 -10 -4 -34 -19 -34 -8 0
-14 6 -14 13 0 22 19 35 33 21z M2185 1165 c-14 -13 -25 -33 -25 -45 0 -28 44
-70 73 -70 14 0 35 9 48 20 l24 20 -31 -16 c-56 -31 -114 5 -100 62 8 30 45
49 80 40 29 -7 43 -41 26 -61 -18 -22 -31 -18 -25 8 7 27 -26 35 -45 11 -22
-25 -4 -45 36 -41 55 7 70 41 34 77 -27 27 -66 25 -95 -5z m58 -31 c9 -10 -4
-34 -19 -34 -8 0 -14 6 -14 13 0 22 19 35 33 21z M1211 1105 l-29 -64 -84 -4
-83 -3 81 -2 c58 -1 85 2 93 11 13 17 62 127 56 127 -3 0 -18 -29 -34 -65z
M2553 1133 c-8 -21 -22 -51 -30 -68 -9 -16 -11 -25 -5 -20 13 12 64 125 56
125 -3 0 -12 -17 -21 -37z M1383 1105 c0 -33 2 -45 4 -27 2 18 2 45 0 60 -2
15 -4 0 -4 -33z M1523 1105 c0 -33 2 -45 4 -27 2 18 2 45 0 60 -2 15 -4 0 -4
-33z M2383 1105 c0 -33 2 -45 4 -27 2 18 2 45 0 60 -2 15 -4 0 -4 -33z M2713
1105 c0 -33 2 -45 4 -27 2 18 2 45 0 60 -2 15 -4 0 -4 -33z M3036 1143 c-6
-14 -5 -15 5 -6 7 7 10 15 7 18 -3 3 -9 -2 -12 -12z M1270 1115 c0 -3 2 -5 5
-5 3 0 5 2 5 5 0 3 -2 5 -5 5 -3 0 -5 -2 -5 -5z M1350 1115 c0 -3 2 -5 5 -5 3
0 5 2 5 5 0 3 -2 5 -5 5 -3 0 -5 -2 -5 -5z M1410 1115 c0 -3 2 -5 5 -5 3 0 5
2 5 5 0 3 -2 5 -5 5 -3 0 -5 -2 -5 -5z M1490 1115 c0 -3 2 -5 5 -5 3 0 5 2 5
5 0 3 -2 5 -5 5 -3 0 -5 -2 -5 -5z M2410 1115 c0 -3 2 -5 5 -5 3 0 5 2 5 5 0
3 -2 5 -5 5 -3 0 -5 -2 -5 -5z M2490 1115 c0 -3 2 -5 5 -5 3 0 5 2 5 5 0 3 -2
5 -5 5 -3 0 -5 -2 -5 -5z M2600 1115 c0 -3 2 -5 5 -5 3 0 5 2 5 5 0 3 -2 5 -5
5 -3 0 -5 -2 -5 -5z M2680 1115 c0 -3 2 -5 5 -5 3 0 5 2 5 5 0 3 -2 5 -5 5 -3
0 -5 -2 -5 -5z M2740 1115 c0 -3 2 -5 5 -5 3 0 5 2 5 5 0 3 -2 5 -5 5 -3 0 -5
-2 -5 -5z M2820 1115 c0 -3 2 -5 5 -5 3 0 5 2 5 5 0 3 -2 5 -5 5 -3 0 -5 -2
-5 -5z M2900 1115 c0 -3 2 -5 5 -5 3 0 5 2 5 5 0 3 -2 5 -5 5 -3 0 -5 -2 -5
-5z M2980 1115 c0 -3 2 -5 5 -5 3 0 5 2 5 5 0 3 -2 5 -5 5 -3 0 -5 -2 -5 -5z
M1820 1076 c0 -2 8 -10 18 -17 15 -13 16 -12 3 4 -13 16 -21 21 -21 13z M1970
1076 c0 -2 8 -10 18 -17 15 -13 16 -12 3 4 -13 16 -21 21 -21 13z M1270 1055
c0 -3 2 -5 5 -5 3 0 5 2 5 5 0 3 -2 5 -5 5 -3 0 -5 -2 -5 -5z M1350 1055 c0
-3 2 -5 5 -5 3 0 5 2 5 5 0 3 -2 5 -5 5 -3 0 -5 -2 -5 -5z M1410 1055 c0 -3 2
-5 5 -5 3 0 5 2 5 5 0 3 -2 5 -5 5 -3 0 -5 -2 -5 -5z M1490 1055 c0 -3 2 -5 5
-5 3 0 5 2 5 5 0 3 -2 5 -5 5 -3 0 -5 -2 -5 -5z M1936 1043 c-6 -14 -5 -15 5
-6 7 7 10 15 7 18 -3 3 -9 -2 -12 -12z M2086 1043 c-6 -14 -5 -15 5 -6 7 7 10
15 7 18 -3 3 -9 -2 -12 -12z M2410 1055 c0 -3 2 -5 5 -5 3 0 5 2 5 5 0 3 -2 5
-5 5 -3 0 -5 -2 -5 -5z M2490 1055 c0 -3 2 -5 5 -5 3 0 5 2 5 5 0 3 -2 5 -5 5
-3 0 -5 -2 -5 -5z M2600 1055 c0 -3 2 -5 5 -5 3 0 5 2 5 5 0 3 -2 5 -5 5 -3 0
-5 -2 -5 -5z M2680 1055 c0 -3 2 -5 5 -5 3 0 5 2 5 5 0 3 -2 5 -5 5 -3 0 -5
-2 -5 -5z M2740 1055 c0 -3 2 -5 5 -5 3 0 5 2 5 5 0 3 -2 5 -5 5 -3 0 -5 -2
-5 -5z M2820 1055 c0 -3 2 -5 5 -5 3 0 5 2 5 5 0 3 -2 5 -5 5 -3 0 -5 -2 -5
-5z M2900 1055 c0 -3 2 -5 5 -5 3 0 5 2 5 5 0 3 -2 5 -5 5 -3 0 -5 -2 -5 -5z
M2980 1055 c0 -3 2 -5 5 -5 3 0 5 2 5 5 0 3 -2 5 -5 5 -3 0 -5 -2 -5 -5z
M3010 1055 c0 -3 2 -5 5 -5 3 0 5 2 5 5 0 3 -2 5 -5 5 -3 0 -5 -2 -5 -5z
M3066 1043 c-6 -14 -5 -15 5 -6 7 7 10 15 7 18 -3 3 -9 -2 -12 -12z M1888
1033 c6 -2 18 -2 25 0 6 3 1 5 -13 5 -14 0 -19 -2 -12 -5z M2038 1033 c6 -2
18 -2 25 0 6 3 1 5 -13 5 -14 0 -19 -2 -12 -5z M760 1007 c0 -1 35 -36 78 -77
l77 -75 -75 78 c-69 71 -80 82 -80 74z M1210 1007 c0 -1 35 -36 78 -77 l77
-75 -75 78 c-69 71 -80 82 -80 74z M1550 1007 c0 -1 35 -36 78 -77 l77 -75
-75 78 c-69 71 -80 82 -80 74z M2084 990 c9 -13 16 -38 16 -55 0 -17 -7 -42
-16 -55 l-16 -25 21 24 c12 13 21 37 21 56 0 19 -9 43 -21 56 l-21 24 16 -25z
M2570 935 c-41 -41 -72 -75 -69 -75 2 0 38 34 79 75 41 41 72 75 69 75 -2 0
-38 -34 -79 -75z M963 953 c-8 -21 -22 -51 -30 -68 -9 -16 -11 -25 -5 -20 13
12 64 125 56 125 -3 0 -12 -17 -21 -37z M2353 953 c-8 -21 -22 -51 -30 -68 -9
-16 -11 -25 -5 -20 13 12 64 125 56 125 -3 0 -12 -17 -21 -37z M2463 953 c-8
-21 -22 -51 -30 -68 -9 -16 -11 -25 -5 -20 13 12 64 125 56 125 -3 0 -12 -17
-21 -37z M1503 925 c0 -33 2 -45 4 -27 2 18 2 45 0 60 -2 15 -4 0 -4 -33z
M1890 974 c0 -6 9 -19 20 -29 19 -17 19 -19 2 -32 -15 -12 -13 -12 10 -2 27
12 27 13 8 26 -11 8 -24 21 -29 31 -6 9 -11 12 -11 6z M2723 925 c0 -33 2 -45
4 -27 2 18 2 45 0 60 -2 15 -4 0 -4 -33z M3080 970 c0 -7 3 -10 7 -7 3 4 3 10
0 14 -4 3 -7 0 -7 -7z M1421 944 c13 -17 26 -30 28 -27 3 2 -8 16 -24 31 l-28
27 24 -31z M157 933 c24 -2 62 -2 85 0 24 2 5 4 -42 4 -47 0 -66 -2 -43 -4z
M1010 935 c0 -3 2 -5 5 -5 3 0 5 2 5 5 0 3 -2 5 -5 5 -3 0 -5 -2 -5 -5z M1040
935 c0 -3 2 -5 5 -5 3 0 5 2 5 5 0 3 -2 5 -5 5 -3 0 -5 -2 -5 -5z M1070 935
c0 -3 2 -5 5 -5 3 0 5 2 5 5 0 3 -2 5 -5 5 -3 0 -5 -2 -5 -5z M1100 935 c0 -3
2 -5 5 -5 3 0 5 2 5 5 0 3 -2 5 -5 5 -3 0 -5 -2 -5 -5z M1130 935 c0 -3 2 -5
5 -5 3 0 5 2 5 5 0 3 -2 5 -5 5 -3 0 -5 -2 -5 -5z M1160 935 c0 -3 2 -5 5 -5
3 0 5 2 5 5 0 3 -2 5 -5 5 -3 0 -5 -2 -5 -5z M1190 935 c0 -3 2 -5 5 -5 3 0 5
2 5 5 0 3 -2 5 -5 5 -3 0 -5 -2 -5 -5z M2400 935 c0 -3 2 -5 5 -5 3 0 5 2 5 5
0 3 -2 5 -5 5 -3 0 -5 -2 -5 -5z M2750 935 c0 -3 2 -5 5 -5 3 0 5 2 5 5 0 3
-2 5 -5 5 -3 0 -5 -2 -5 -5z M2830 935 c0 -3 2 -5 5 -5 3 0 5 2 5 5 0 3 -2 5
-5 5 -3 0 -5 -2 -5 -5z M2910 935 c0 -3 2 -5 5 -5 3 0 5 2 5 5 0 3 -2 5 -5 5
-3 0 -5 -2 -5 -5z M2990 935 c0 -3 2 -5 5 -5 3 0 5 2 5 5 0 3 -2 5 -5 5 -3 0
-5 -2 -5 -5z M3083 905 c0 -22 2 -30 4 -17 2 12 2 30 0 40 -3 9 -5 -1 -4 -23z
M458 923 c12 -2 30 -2 40 0 9 3 -1 5 -23 4 -22 0 -30 -2 -17 -4z M538 923 c12
-2 30 -2 40 0 9 3 -1 5 -23 4 -22 0 -30 -2 -17 -4z M1010 875 c0 -3 2 -5 5 -5
3 0 5 2 5 5 0 3 -2 5 -5 5 -3 0 -5 -2 -5 -5z M1040 875 c0 -3 2 -5 5 -5 3 0 5
2 5 5 0 3 -2 5 -5 5 -3 0 -5 -2 -5 -5z M1070 875 c0 -3 2 -5 5 -5 3 0 5 2 5 5
0 3 -2 5 -5 5 -3 0 -5 -2 -5 -5z M1100 875 c0 -3 2 -5 5 -5 3 0 5 2 5 5 0 3
-2 5 -5 5 -3 0 -5 -2 -5 -5z M1130 875 c0 -3 2 -5 5 -5 3 0 5 2 5 5 0 3 -2 5
-5 5 -3 0 -5 -2 -5 -5z M1160 875 c0 -3 2 -5 5 -5 3 0 5 2 5 5 0 3 -2 5 -5 5
-3 0 -5 -2 -5 -5z M1190 875 c0 -3 2 -5 5 -5 3 0 5 2 5 5 0 3 -2 5 -5 5 -3 0
-5 -2 -5 -5z M1530 875 c0 -3 2 -5 5 -5 3 0 5 2 5 5 0 3 -2 5 -5 5 -3 0 -5 -2
-5 -5z M2000 875 c0 -3 2 -5 5 -5 3 0 5 2 5 5 0 3 -2 5 -5 5 -3 0 -5 -2 -5 -5z
M2400 875 c0 -3 2 -5 5 -5 3 0 5 2 5 5 0 3 -2 5 -5 5 -3 0 -5 -2 -5 -5z M2750
875 c0 -3 2 -5 5 -5 3 0 5 2 5 5 0 3 -2 5 -5 5 -3 0 -5 -2 -5 -5z M2830 875
c0 -3 2 -5 5 -5 3 0 5 2 5 5 0 3 -2 5 -5 5 -3 0 -5 -2 -5 -5z M2910 875 c0 -3
2 -5 5 -5 3 0 5 2 5 5 0 3 -2 5 -5 5 -3 0 -5 -2 -5 -5z M2990 875 c0 -3 2 -5
5 -5 3 0 5 2 5 5 0 3 -2 5 -5 5 -3 0 -5 -2 -5 -5z M3020 875 c0 -3 2 -5 5 -5
3 0 5 2 5 5 0 3 -2 5 -5 5 -3 0 -5 -2 -5 -5z M3050 875 c0 -3 2 -5 5 -5 3 0 5
2 5 5 0 3 -2 5 -5 5 -3 0 -5 -2 -5 -5z M2028 853 c6 -2 18 -2 25 0 6 3 1 5
-13 5 -14 0 -19 -2 -12 -5z M879 793 c-5 -52 0 -113 10 -113 5 0 5 17 2 38 -4
20 -4 54 -1 75 4 20 4 37 -1 37 -4 0 -8 -17 -10 -37z M1800 827 c0 -1 35 -36
78 -77 l77 -75 -75 78 c-69 71 -80 82 -80 74z M1430 815 c0 -2 10 -10 23 -16
20 -11 21 -11 8 4 -13 16 -31 23 -31 12z M2262 782 l-52 -28 56 -27 c31 -15
58 -26 60 -24 2 2 -19 14 -47 27 l-50 24 53 28 c29 15 49 27 43 27 -5 0 -34
-12 -63 -27z M1507 793 c19 -4 23 -12 26 -56 l3 -52 2 52 c2 45 5 52 25 56 12
2 0 4 -28 4 -27 0 -40 -2 -28 -4z M1632 793 l37 -4 -19 -50 c-22 -54 -18 -68
4 -16 32 77 32 77 -16 75 -43 -1 -43 -1 -6 -5z M2813 745 c0 -33 2 -45 4 -27
2 18 2 45 0 60 -2 15 -4 0 -4 -33z M3203 745 c0 -33 2 -45 4 -27 2 18 2 45 0
60 -2 15 -4 0 -4 -33z M243 753 c9 -2 25 -2 35 0 9 3 1 5 -18 5 -19 0 -27 -2
-17 -5z M398 753 c23 -2 61 -2 85 0 23 2 4 4 -43 4 -47 0 -66 -2 -42 -4z M920
755 c0 -3 2 -5 5 -5 3 0 5 2 5 5 0 3 -2 5 -5 5 -3 0 -5 -2 -5 -5z M950 755 c0
-3 2 -5 5 -5 3 0 5 2 5 5 0 3 -2 5 -5 5 -3 0 -5 -2 -5 -5z M980 755 c0 -3 2
-5 5 -5 3 0 5 2 5 5 0 3 -2 5 -5 5 -3 0 -5 -2 -5 -5z M1010 755 c0 -3 2 -5 5
-5 3 0 5 2 5 5 0 3 -2 5 -5 5 -3 0 -5 -2 -5 -5z M1040 755 c0 -3 2 -5 5 -5 3
0 5 2 5 5 0 3 -2 5 -5 5 -3 0 -5 -2 -5 -5z M1070 755 c0 -3 2 -5 5 -5 3 0 5 2
5 5 0 3 -2 5 -5 5 -3 0 -5 -2 -5 -5z M1100 755 c0 -3 2 -5 5 -5 3 0 5 2 5 5 0
3 -2 5 -5 5 -3 0 -5 -2 -5 -5z M1130 755 c0 -3 2 -5 5 -5 3 0 5 2 5 5 0 3 -2
5 -5 5 -3 0 -5 -2 -5 -5z M1160 755 c0 -3 2 -5 5 -5 3 0 5 2 5 5 0 3 -2 5 -5
5 -3 0 -5 -2 -5 -5z M1190 755 c0 -3 2 -5 5 -5 3 0 5 2 5 5 0 3 -2 5 -5 5 -3
0 -5 -2 -5 -5z M1220 755 c0 -3 2 -5 5 -5 3 0 5 2 5 5 0 3 -2 5 -5 5 -3 0 -5
-2 -5 -5z M1250 755 c0 -3 2 -5 5 -5 3 0 5 2 5 5 0 3 -2 5 -5 5 -3 0 -5 -2 -5
-5z M1280 755 c0 -3 2 -5 5 -5 3 0 5 2 5 5 0 3 -2 5 -5 5 -3 0 -5 -2 -5 -5z
M1310 755 c0 -3 2 -5 5 -5 3 0 5 2 5 5 0 3 -2 5 -5 5 -3 0 -5 -2 -5 -5z M1340
755 c0 -3 2 -5 5 -5 3 0 5 2 5 5 0 3 -2 5 -5 5 -3 0 -5 -2 -5 -5z M1370 755
c0 -3 2 -5 5 -5 3 0 5 2 5 5 0 3 -2 5 -5 5 -3 0 -5 -2 -5 -5z M1400 755 c0 -3
2 -5 5 -5 3 0 5 2 5 5 0 3 -2 5 -5 5 -3 0 -5 -2 -5 -5z M1973 753 c9 -2 25 -2
35 0 9 3 1 5 -18 5 -19 0 -27 -2 -17 -5z M2053 753 c9 -2 25 -2 35 0 9 3 1 5
-18 5 -19 0 -27 -2 -17 -5z M2133 753 c9 -2 25 -2 35 0 9 3 1 5 -18 5 -19 0
-27 -2 -17 -5z M2850 755 c0 -3 2 -5 5 -5 3 0 5 2 5 5 0 3 -2 5 -5 5 -3 0 -5
-2 -5 -5z M2930 755 c0 -3 2 -5 5 -5 3 0 5 2 5 5 0 3 -2 5 -5 5 -3 0 -5 -2 -5
-5z M3010 755 c0 -3 2 -5 5 -5 3 0 5 2 5 5 0 3 -2 5 -5 5 -3 0 -5 -2 -5 -5z
M3090 755 c0 -3 2 -5 5 -5 3 0 5 2 5 5 0 3 -2 5 -5 5 -3 0 -5 -2 -5 -5z M640
695 c0 -3 2 -5 5 -5 3 0 5 2 5 5 0 3 -2 5 -5 5 -3 0 -5 -2 -5 -5z M920 695 c0
-3 2 -5 5 -5 3 0 5 2 5 5 0 3 -2 5 -5 5 -3 0 -5 -2 -5 -5z M950 695 c0 -3 2
-5 5 -5 3 0 5 2 5 5 0 3 -2 5 -5 5 -3 0 -5 -2 -5 -5z M980 695 c0 -3 2 -5 5
-5 3 0 5 2 5 5 0 3 -2 5 -5 5 -3 0 -5 -2 -5 -5z M1010 695 c0 -3 2 -5 5 -5 3
0 5 2 5 5 0 3 -2 5 -5 5 -3 0 -5 -2 -5 -5z M1040 695 c0 -3 2 -5 5 -5 3 0 5 2
5 5 0 3 -2 5 -5 5 -3 0 -5 -2 -5 -5z M1070 695 c0 -3 2 -5 5 -5 3 0 5 2 5 5 0
3 -2 5 -5 5 -3 0 -5 -2 -5 -5z M1100 695 c0 -3 2 -5 5 -5 3 0 5 2 5 5 0 3 -2
5 -5 5 -3 0 -5 -2 -5 -5z M1130 695 c0 -3 2 -5 5 -5 3 0 5 2 5 5 0 3 -2 5 -5
5 -3 0 -5 -2 -5 -5z M1160 695 c0 -3 2 -5 5 -5 3 0 5 2 5 5 0 3 -2 5 -5 5 -3
0 -5 -2 -5 -5z M1190 695 c0 -3 2 -5 5 -5 3 0 5 2 5 5 0 3 -2 5 -5 5 -3 0 -5
-2 -5 -5z M1220 695 c0 -3 2 -5 5 -5 3 0 5 2 5 5 0 3 -2 5 -5 5 -3 0 -5 -2 -5
-5z M1250 695 c0 -3 2 -5 5 -5 3 0 5 2 5 5 0 3 -2 5 -5 5 -3 0 -5 -2 -5 -5z
M1280 695 c0 -3 2 -5 5 -5 3 0 5 2 5 5 0 3 -2 5 -5 5 -3 0 -5 -2 -5 -5z M1310
695 c0 -3 2 -5 5 -5 3 0 5 2 5 5 0 3 -2 5 -5 5 -3 0 -5 -2 -5 -5z M1340 695
c0 -3 2 -5 5 -5 3 0 5 2 5 5 0 3 -2 5 -5 5 -3 0 -5 -2 -5 -5z M1370 695 c0 -3
2 -5 5 -5 3 0 5 2 5 5 0 3 -2 5 -5 5 -3 0 -5 -2 -5 -5z M1400 695 c0 -3 2 -5
5 -5 3 0 5 2 5 5 0 3 -2 5 -5 5 -3 0 -5 -2 -5 -5z M2850 695 c0 -3 2 -5 5 -5
3 0 5 2 5 5 0 3 -2 5 -5 5 -3 0 -5 -2 -5 -5z M2930 695 c0 -3 2 -5 5 -5 3 0 5
2 5 5 0 3 -2 5 -5 5 -3 0 -5 -2 -5 -5z M3010 695 c0 -3 2 -5 5 -5 3 0 5 2 5 5
0 3 -2 5 -5 5 -3 0 -5 -2 -5 -5z M3090 695 c0 -3 2 -5 5 -5 3 0 5 2 5 5 0 3
-2 5 -5 5 -3 0 -5 -2 -5 -5z M3120 695 c0 -3 2 -5 5 -5 3 0 5 2 5 5 0 3 -2 5
-5 5 -3 0 -5 -2 -5 -5z M680 575 c-41 -41 -72 -75 -69 -75 2 0 38 34 79 75 41
41 72 75 69 75 -2 0 -38 -34 -79 -75z M890 575 c-41 -41 -72 -75 -69 -75 2 0
38 34 79 75 41 41 72 75 69 75 -2 0 -38 -34 -79 -75z M1512 618 c-2 -35 -4
-37 -39 -41 l-38 -4 37 -1 c36 -2 37 -3 41 -44 l4 -43 1 44 2 43 78 -5 77 -5
-77 10 -77 11 -4 36 -4 36 -1 -37z M1860 575 c-41 -41 -72 -75 -69 -75 2 0 38
34 79 75 41 41 72 75 69 75 -2 0 -38 -34 -79 -75z M2050 575 c-41 -41 -72 -75
-69 -75 2 0 38 34 79 75 41 41 72 75 69 75 -2 0 -38 -34 -79 -75z M1723 593
c-8 -21 -22 -51 -30 -68 -9 -16 -11 -25 -5 -20 13 12 64 125 56 125 -3 0 -12
-17 -21 -37z M2183 593 c-8 -21 -22 -51 -30 -68 -9 -16 -11 -25 -5 -20 13 12
64 125 56 125 -3 0 -12 -17 -21 -37z M1773 565 c0 -33 2 -45 4 -27 2 18 2 45
0 60 -2 15 -4 0 -4 -33z M1963 565 c0 -33 2 -45 4 -27 2 18 2 45 0 60 -2 15
-4 0 -4 -33z M2723 565 c0 -33 2 -45 4 -27 2 18 2 45 0 60 -2 15 -4 0 -4 -33z
M3153 565 c0 -33 2 -45 4 -27 2 18 2 45 0 60 -2 15 -4 0 -4 -33z M2421 584
c13 -17 26 -30 28 -27 3 2 -8 16 -24 31 l-28 27 24 -31z M991 541 c2 -30 3
-31 6 -8 2 15 5 28 6 29 1 1 97 5 212 8 l210 6 -217 1 -218 1 1 -37z M2750
575 c0 -3 2 -5 5 -5 3 0 5 2 5 5 0 3 -2 5 -5 5 -3 0 -5 -2 -5 -5z M2830 575
c0 -3 2 -5 5 -5 3 0 5 2 5 5 0 3 -2 5 -5 5 -3 0 -5 -2 -5 -5z M2910 575 c0 -3
2 -5 5 -5 3 0 5 2 5 5 0 3 -2 5 -5 5 -3 0 -5 -2 -5 -5z M2990 575 c0 -3 2 -5
5 -5 3 0 5 2 5 5 0 3 -2 5 -5 5 -3 0 -5 -2 -5 -5z M3070 575 c0 -3 2 -5 5 -5
3 0 5 2 5 5 0 3 -2 5 -5 5 -3 0 -5 -2 -5 -5z M2750 515 c0 -3 2 -5 5 -5 3 0 5
2 5 5 0 3 -2 5 -5 5 -3 0 -5 -2 -5 -5z M2830 515 c0 -3 2 -5 5 -5 3 0 5 2 5 5
0 3 -2 5 -5 5 -3 0 -5 -2 -5 -5z M2910 515 c0 -3 2 -5 5 -5 3 0 5 2 5 5 0 3
-2 5 -5 5 -3 0 -5 -2 -5 -5z M2990 515 c0 -3 2 -5 5 -5 3 0 5 2 5 5 0 3 -2 5
-5 5 -3 0 -5 -2 -5 -5z M3070 515 c0 -3 2 -5 5 -5 3 0 5 2 5 5 0 3 -2 5 -5 5
-3 0 -5 -2 -5 -5z M2278 493 c6 -2 18 -2 25 0 6 3 1 5 -13 5 -14 0 -19 -2 -12
-5z M2328 493 c6 -2 18 -2 25 0 6 3 1 5 -13 5 -14 0 -19 -2 -12 -5z M520 395
c-41 -41 -72 -75 -69 -75 2 0 38 34 79 75 41 41 72 75 69 75 -2 0 -38 -34 -79
-75z M730 395 c-41 -41 -72 -75 -69 -75 2 0 38 34 79 75 41 41 72 75 69 75 -2
0 -38 -34 -79 -75z M1503 390 c0 -47 2 -66 4 -42 2 23 2 61 0 85 -2 23 -4 4
-4 -43z M860 445 c46 -18 64 -17 25 0 -16 8 -37 14 -45 14 -8 0 1 -7 20 -14z
M973 413 c-8 -21 -22 -51 -30 -68 -9 -16 -11 -25 -5 -20 13 12 64 125 56 125
-3 0 -12 -17 -21 -37z M1623 413 c-8 -21 -22 -51 -30 -68 -9 -16 -11 -25 -5
-20 13 12 64 125 56 125 -3 0 -12 -17 -21 -37z M1733 413 c-8 -21 -22 -51 -30
-68 -9 -16 -11 -25 -5 -20 13 12 64 125 56 125 -3 0 -12 -17 -21 -37z M1863
385 c0 -33 2 -45 4 -27 2 18 2 45 0 60 -2 15 -4 0 -4 -33z M2169 415 c10 -17
21 -44 24 -60 l4 -30 2 28 c0 16 10 43 22 60 l21 32 -24 -28 -24 -27 -23 27
-22 28 20 -30z M2473 385 c0 -33 2 -45 4 -27 2 18 2 45 0 60 -2 15 -4 0 -4
-33z M2723 385 c0 -33 2 -45 4 -27 2 18 2 45 0 60 -2 15 -4 0 -4 -33z M3213
385 c0 -33 2 -45 4 -27 2 18 2 45 0 60 -2 15 -4 0 -4 -33z M331 404 c13 -17
26 -30 28 -27 3 2 -8 16 -24 31 l-28 27 24 -31z M830 418 c3 -3 21 -10 40 -17
19 -6 30 -7 25 -2 -6 5 -23 13 -40 17 -16 4 -28 5 -25 2z M1020 395 c0 -3 2
-5 5 -5 3 0 5 2 5 5 0 3 -2 5 -5 5 -3 0 -5 -2 -5 -5z M1100 395 c0 -3 2 -5 5
-5 3 0 5 2 5 5 0 3 -2 5 -5 5 -3 0 -5 -2 -5 -5z M1180 395 c0 -3 2 -5 5 -5 3
0 5 2 5 5 0 3 -2 5 -5 5 -3 0 -5 -2 -5 -5z M1260 395 c0 -3 2 -5 5 -5 3 0 5 2
5 5 0 3 -2 5 -5 5 -3 0 -5 -2 -5 -5z M1340 395 c0 -3 2 -5 5 -5 3 0 5 2 5 5 0
3 -2 5 -5 5 -3 0 -5 -2 -5 -5z M1420 395 c0 -3 2 -5 5 -5 3 0 5 2 5 5 0 3 -2
5 -5 5 -3 0 -5 -2 -5 -5z M1670 395 c0 -3 2 -5 5 -5 3 0 5 2 5 5 0 3 -2 5 -5
5 -3 0 -5 -2 -5 -5z M1780 395 c0 -3 2 -5 5 -5 3 0 5 2 5 5 0 3 -2 5 -5 5 -3
0 -5 -2 -5 -5z M1890 395 c0 -3 2 -5 5 -5 3 0 5 2 5 5 0 3 -2 5 -5 5 -3 0 -5
-2 -5 -5z M1970 395 c0 -3 2 -5 5 -5 3 0 5 2 5 5 0 3 -2 5 -5 5 -3 0 -5 -2 -5
-5z M2050 395 c0 -3 2 -5 5 -5 3 0 5 2 5 5 0 3 -2 5 -5 5 -3 0 -5 -2 -5 -5z
M2130 395 c0 -3 2 -5 5 -5 3 0 5 2 5 5 0 3 -2 5 -5 5 -3 0 -5 -2 -5 -5z M2260
395 c0 -3 2 -5 5 -5 3 0 5 2 5 5 0 3 -2 5 -5 5 -3 0 -5 -2 -5 -5z M2290 395
c0 -3 2 -5 5 -5 3 0 5 2 5 5 0 3 -2 5 -5 5 -3 0 -5 -2 -5 -5z M2320 395 c0 -3
2 -5 5 -5 3 0 5 2 5 5 0 3 -2 5 -5 5 -3 0 -5 -2 -5 -5z M2350 395 c0 -3 2 -5
5 -5 3 0 5 2 5 5 0 3 -2 5 -5 5 -3 0 -5 -2 -5 -5z M2380 395 c0 -3 2 -5 5 -5
3 0 5 2 5 5 0 3 -2 5 -5 5 -3 0 -5 -2 -5 -5z M2410 395 c0 -3 2 -5 5 -5 3 0 5
2 5 5 0 3 -2 5 -5 5 -3 0 -5 -2 -5 -5z M2440 395 c0 -3 2 -5 5 -5 3 0 5 2 5 5
0 3 -2 5 -5 5 -3 0 -5 -2 -5 -5z M2750 395 c0 -3 2 -5 5 -5 3 0 5 2 5 5 0 3
-2 5 -5 5 -3 0 -5 -2 -5 -5z M2830 395 c0 -3 2 -5 5 -5 3 0 5 2 5 5 0 3 -2 5
-5 5 -3 0 -5 -2 -5 -5z M2910 395 c0 -3 2 -5 5 -5 3 0 5 2 5 5 0 3 -2 5 -5 5
-3 0 -5 -2 -5 -5z M2990 395 c0 -3 2 -5 5 -5 3 0 5 2 5 5 0 3 -2 5 -5 5 -3 0
-5 -2 -5 -5z M3070 395 c0 -3 2 -5 5 -5 3 0 5 2 5 5 0 3 -2 5 -5 5 -3 0 -5 -2
-5 -5z M3150 395 c0 -3 2 -5 5 -5 3 0 5 2 5 5 0 3 -2 5 -5 5 -3 0 -5 -2 -5 -5z
M830 363 c8 -3 30 -12 48 -19 17 -7 32 -11 32 -8 0 7 -67 34 -82 33 -8 0 -8
-3 2 -6z M1020 335 c0 -3 2 -5 5 -5 3 0 5 2 5 5 0 3 -2 5 -5 5 -3 0 -5 -2 -5
-5z M1100 335 c0 -3 2 -5 5 -5 3 0 5 2 5 5 0 3 -2 5 -5 5 -3 0 -5 -2 -5 -5z
M1180 335 c0 -3 2 -5 5 -5 3 0 5 2 5 5 0 3 -2 5 -5 5 -3 0 -5 -2 -5 -5z M1260
335 c0 -3 2 -5 5 -5 3 0 5 2 5 5 0 3 -2 5 -5 5 -3 0 -5 -2 -5 -5z M1340 335
c0 -3 2 -5 5 -5 3 0 5 2 5 5 0 3 -2 5 -5 5 -3 0 -5 -2 -5 -5z M1420 335 c0 -3
2 -5 5 -5 3 0 5 2 5 5 0 3 -2 5 -5 5 -3 0 -5 -2 -5 -5z M1670 335 c0 -3 2 -5
5 -5 3 0 5 2 5 5 0 3 -2 5 -5 5 -3 0 -5 -2 -5 -5z M1780 335 c0 -3 2 -5 5 -5
3 0 5 2 5 5 0 3 -2 5 -5 5 -3 0 -5 -2 -5 -5z M1890 335 c0 -3 2 -5 5 -5 3 0 5
2 5 5 0 3 -2 5 -5 5 -3 0 -5 -2 -5 -5z M1970 335 c0 -3 2 -5 5 -5 3 0 5 2 5 5
0 3 -2 5 -5 5 -3 0 -5 -2 -5 -5z M2050 335 c0 -3 2 -5 5 -5 3 0 5 2 5 5 0 3
-2 5 -5 5 -3 0 -5 -2 -5 -5z M2130 335 c0 -3 2 -5 5 -5 3 0 5 2 5 5 0 3 -2 5
-5 5 -3 0 -5 -2 -5 -5z M2260 335 c0 -3 2 -5 5 -5 3 0 5 2 5 5 0 3 -2 5 -5 5
-3 0 -5 -2 -5 -5z M2290 335 c0 -3 2 -5 5 -5 3 0 5 2 5 5 0 3 -2 5 -5 5 -3 0
-5 -2 -5 -5z M2320 335 c0 -3 2 -5 5 -5 3 0 5 2 5 5 0 3 -2 5 -5 5 -3 0 -5 -2
-5 -5z M2350 335 c0 -3 2 -5 5 -5 3 0 5 2 5 5 0 3 -2 5 -5 5 -3 0 -5 -2 -5 -5z
M2380 335 c0 -3 2 -5 5 -5 3 0 5 2 5 5 0 3 -2 5 -5 5 -3 0 -5 -2 -5 -5z M2410
335 c0 -3 2 -5 5 -5 3 0 5 2 5 5 0 3 -2 5 -5 5 -3 0 -5 -2 -5 -5z M2440 335
c0 -3 2 -5 5 -5 3 0 5 2 5 5 0 3 -2 5 -5 5 -3 0 -5 -2 -5 -5z M2750 335 c0 -3
2 -5 5 -5 3 0 5 2 5 5 0 3 -2 5 -5 5 -3 0 -5 -2 -5 -5z M2830 335 c0 -3 2 -5
5 -5 3 0 5 2 5 5 0 3 -2 5 -5 5 -3 0 -5 -2 -5 -5z M2910 335 c0 -3 2 -5 5 -5
3 0 5 2 5 5 0 3 -2 5 -5 5 -3 0 -5 -2 -5 -5z M2990 335 c0 -3 2 -5 5 -5 3 0 5
2 5 5 0 3 -2 5 -5 5 -3 0 -5 -2 -5 -5z M3070 335 c0 -3 2 -5 5 -5 3 0 5 2 5 5
0 3 -2 5 -5 5 -3 0 -5 -2 -5 -5z M3150 335 c0 -3 2 -5 5 -5 3 0 5 2 5 5 0 3
-2 5 -5 5 -3 0 -5 -2 -5 -5z M3180 335 c0 -3 2 -5 5 -5 3 0 5 2 5 5 0 3 -2 5
-5 5 -3 0 -5 -2 -5 -5z M1480 215 c-41 -41 -72 -75 -69 -75 2 0 38 34 79 75
41 41 72 75 69 75 -2 0 -38 -34 -79 -75z M1663 233 c-8 -21 -22 -51 -30 -68
-9 -16 -11 -25 -5 -20 13 12 64 125 56 125 -3 0 -12 -17 -21 -37z M1823 233
c-8 -21 -22 -51 -30 -68 -9 -16 -11 -25 -5 -20 13 12 64 125 56 125 -3 0 -12
-17 -21 -37z M926 243 c-6 -14 -5 -15 5 -6 7 7 10 15 7 18 -3 3 -9 -2 -12 -12z
M2193 205 c0 -33 2 -45 4 -27 2 18 2 45 0 60 -2 15 -4 0 -4 -33z M2493 205 c0
-33 2 -45 4 -27 2 18 2 45 0 60 -2 15 -4 0 -4 -33z M2713 205 c0 -33 2 -45 4
-27 2 18 2 45 0 60 -2 15 -4 0 -4 -33z M3223 205 c0 -33 2 -45 4 -27 2 18 2
45 0 60 -2 15 -4 0 -4 -33z M960 215 c0 -3 2 -5 5 -5 3 0 5 2 5 5 0 3 -2 5 -5
5 -3 0 -5 -2 -5 -5z M1040 215 c0 -3 2 -5 5 -5 3 0 5 2 5 5 0 3 -2 5 -5 5 -3
0 -5 -2 -5 -5z M1120 215 c0 -3 2 -5 5 -5 3 0 5 2 5 5 0 3 -2 5 -5 5 -3 0 -5
-2 -5 -5z M1200 215 c0 -3 2 -5 5 -5 3 0 5 2 5 5 0 3 -2 5 -5 5 -3 0 -5 -2 -5
-5z M1280 215 c0 -3 2 -5 5 -5 3 0 5 2 5 5 0 3 -2 5 -5 5 -3 0 -5 -2 -5 -5z
M1360 215 c0 -3 2 -5 5 -5 3 0 5 2 5 5 0 3 -2 5 -5 5 -3 0 -5 -2 -5 -5z M1710
215 c0 -3 2 -5 5 -5 3 0 5 2 5 5 0 3 -2 5 -5 5 -3 0 -5 -2 -5 -5z M1870 215
c0 -3 2 -5 5 -5 3 0 5 2 5 5 0 3 -2 5 -5 5 -3 0 -5 -2 -5 -5z M1950 215 c0 -3
2 -5 5 -5 3 0 5 2 5 5 0 3 -2 5 -5 5 -3 0 -5 -2 -5 -5z M2030 215 c0 -3 2 -5
5 -5 3 0 5 2 5 5 0 3 -2 5 -5 5 -3 0 -5 -2 -5 -5z M2110 215 c0 -3 2 -5 5 -5
3 0 5 2 5 5 0 3 -2 5 -5 5 -3 0 -5 -2 -5 -5z M2220 215 c0 -3 2 -5 5 -5 3 0 5
2 5 5 0 3 -2 5 -5 5 -3 0 -5 -2 -5 -5z M2250 215 c0 -3 2 -5 5 -5 3 0 5 2 5 5
0 3 -2 5 -5 5 -3 0 -5 -2 -5 -5z M2280 215 c0 -3 2 -5 5 -5 3 0 5 2 5 5 0 3
-2 5 -5 5 -3 0 -5 -2 -5 -5z M2310 215 c0 -3 2 -5 5 -5 3 0 5 2 5 5 0 3 -2 5
-5 5 -3 0 -5 -2 -5 -5z M2340 215 c0 -3 2 -5 5 -5 3 0 5 2 5 5 0 3 -2 5 -5 5
-3 0 -5 -2 -5 -5z M2370 215 c0 -3 2 -5 5 -5 3 0 5 2 5 5 0 3 -2 5 -5 5 -3 0
-5 -2 -5 -5z M2400 215 c0 -3 2 -5 5 -5 3 0 5 2 5 5 0 3 -2 5 -5 5 -3 0 -5 -2
-5 -5z M2430 215 c0 -3 2 -5 5 -5 3 0 5 2 5 5 0 3 -2 5 -5 5 -3 0 -5 -2 -5 -5z
M2460 215 c0 -3 2 -5 5 -5 3 0 5 2 5 5 0 3 -2 5 -5 5 -3 0 -5 -2 -5 -5z M2740
215 c0 -3 2 -5 5 -5 3 0 5 2 5 5 0 3 -2 5 -5 5 -3 0 -5 -2 -5 -5z M2820 215
c0 -3 2 -5 5 -5 3 0 5 2 5 5 0 3 -2 5 -5 5 -3 0 -5 -2 -5 -5z M2900 215 c0 -3
2 -5 5 -5 3 0 5 2 5 5 0 3 -2 5 -5 5 -3 0 -5 -2 -5 -5z M2980 215 c0 -3 2 -5
5 -5 3 0 5 2 5 5 0 3 -2 5 -5 5 -3 0 -5 -2 -5 -5z M3060 215 c0 -3 2 -5 5 -5
3 0 5 2 5 5 0 3 -2 5 -5 5 -3 0 -5 -2 -5 -5z M3140 215 c0 -3 2 -5 5 -5 3 0 5
2 5 5 0 3 -2 5 -5 5 -3 0 -5 -2 -5 -5z M896 143 c-6 -14 -5 -15 5 -6 7 7 10
15 7 18 -3 3 -9 -2 -12 -12z M960 155 c0 -3 2 -5 5 -5 3 0 5 2 5 5 0 3 -2 5
-5 5 -3 0 -5 -2 -5 -5z M1040 155 c0 -3 2 -5 5 -5 3 0 5 2 5 5 0 3 -2 5 -5 5
-3 0 -5 -2 -5 -5z M1120 155 c0 -3 2 -5 5 -5 3 0 5 2 5 5 0 3 -2 5 -5 5 -3 0
-5 -2 -5 -5z M1200 155 c0 -3 2 -5 5 -5 3 0 5 2 5 5 0 3 -2 5 -5 5 -3 0 -5 -2
-5 -5z M1280 155 c0 -3 2 -5 5 -5 3 0 5 2 5 5 0 3 -2 5 -5 5 -3 0 -5 -2 -5 -5z
M1360 155 c0 -3 2 -5 5 -5 3 0 5 2 5 5 0 3 -2 5 -5 5 -3 0 -5 -2 -5 -5z M1390
155 c0 -3 2 -5 5 -5 3 0 5 2 5 5 0 3 -2 5 -5 5 -3 0 -5 -2 -5 -5z M1710 155
c0 -3 2 -5 5 -5 3 0 5 2 5 5 0 3 -2 5 -5 5 -3 0 -5 -2 -5 -5z M1870 155 c0 -3
2 -5 5 -5 3 0 5 2 5 5 0 3 -2 5 -5 5 -3 0 -5 -2 -5 -5z M1950 155 c0 -3 2 -5
5 -5 3 0 5 2 5 5 0 3 -2 5 -5 5 -3 0 -5 -2 -5 -5z M2030 155 c0 -3 2 -5 5 -5
3 0 5 2 5 5 0 3 -2 5 -5 5 -3 0 -5 -2 -5 -5z M2110 155 c0 -3 2 -5 5 -5 3 0 5
2 5 5 0 3 -2 5 -5 5 -3 0 -5 -2 -5 -5z M2220 155 c0 -3 2 -5 5 -5 3 0 5 2 5 5
0 3 -2 5 -5 5 -3 0 -5 -2 -5 -5z M2250 155 c0 -3 2 -5 5 -5 3 0 5 2 5 5 0 3
-2 5 -5 5 -3 0 -5 -2 -5 -5z M2280 155 c0 -3 2 -5 5 -5 3 0 5 2 5 5 0 3 -2 5
-5 5 -3 0 -5 -2 -5 -5z M2310 155 c0 -3 2 -5 5 -5 3 0 5 2 5 5 0 3 -2 5 -5 5
-3 0 -5 -2 -5 -5z M2340 155 c0 -3 2 -5 5 -5 3 0 5 2 5 5 0 3 -2 5 -5 5 -3 0
-5 -2 -5 -5z M2370 155 c0 -3 2 -5 5 -5 3 0 5 2 5 5 0 3 -2 5 -5 5 -3 0 -5 -2
-5 -5z M2400 155 c0 -3 2 -5 5 -5 3 0 5 2 5 5 0 3 -2 5 -5 5 -3 0 -5 -2 -5 -5z
M2430 155 c0 -3 2 -5 5 -5 3 0 5 2 5 5 0 3 -2 5 -5 5 -3 0 -5 -2 -5 -5z M2460
155 c0 -3 2 -5 5 -5 3 0 5 2 5 5 0 3 -2 5 -5 5 -3 0 -5 -2 -5 -5z M2520 155
c0 -3 2 -5 5 -5 3 0 5 2 5 5 0 3 -2 5 -5 5 -3 0 -5 -2 -5 -5z M2740 155 c0 -3
2 -5 5 -5 3 0 5 2 5 5 0 3 -2 5 -5 5 -3 0 -5 -2 -5 -5z M2820 155 c0 -3 2 -5
5 -5 3 0 5 2 5 5 0 3 -2 5 -5 5 -3 0 -5 -2 -5 -5z M2900 155 c0 -3 2 -5 5 -5
3 0 5 2 5 5 0 3 -2 5 -5 5 -3 0 -5 -2 -5 -5z M2980 155 c0 -3 2 -5 5 -5 3 0 5
2 5 5 0 3 -2 5 -5 5 -3 0 -5 -2 -5 -5z M3060 155 c0 -3 2 -5 5 -5 3 0 5 2 5 5
0 3 -2 5 -5 5 -3 0 -5 -2 -5 -5z M3140 155 c0 -3 2 -5 5 -5 3 0 5 2 5 5 0 3
-2 5 -5 5 -3 0 -5 -2 -5 -5z"/>
</g>
</svg>
